<?xml version="1.0" encoding="utf-8"?>
<!-- Generator: Adobe Illustrator 22.0.0, SVG Export Plug-In . SVG Version: 6.00 Build 0)  -->
<svg version="1.1" xmlns="http://www.w3.org/2000/svg" xmlns:xlink="http://www.w3.org/1999/xlink" x="0px" y="0px"
	 viewBox="0 0 606 617.1" style="enable-background:new 0 0 606 617.1;" xml:space="preserve">
<style type="text/css">
	.st0{clip-path:url(#XMLID_4_);fill:#FFFFFF;}
	.st1{fill:#FFFFFF;}
	.st2{fill:none;stroke:#FFFFFF;stroke-width:8;stroke-miterlimit:10;}
	.st3{clip-path:url(#XMLID_5_);fill:#00443C;}
</style>
<g id="Bg">
</g>
<g id="Object">
	<g>
	</g>
	<g>
		<defs>
			<circle id="XMLID_2_" cx="304.1" cy="308.4" r="248"/>
		</defs>
		<use xlink:href="#XMLID_2_"  style="overflow:visible;fill:#005F53;"/>
		<clipPath id="XMLID_4_">
			<use xlink:href="#XMLID_2_"  style="overflow:visible;"/>
		</clipPath>
		<polygon style="clip-path:url(#XMLID_4_);fill:#00443C;" points="622.8,257.3 570.7,307.9 585.9,324 562.1,345.3 422,196.9 
			282.8,332.3 349,332.3 349,414.5 218.4,414.5 218.4,394.8 188.1,424.3 339.4,596.2 268.3,655.4 331.1,716.4 713.1,345.1 		"/>
	</g>
	<g>
		<path class="st1" d="M156.4,355.9c2.9,0.6,6,0.9,9.1,0.9c3.1,0,6.2-0.3,9.1-0.9H156.4z"/>
		<path class="st1" d="M420.4,423.1c-0.2-0.8-0.4-1.5-0.4-2.4l0.1-62.5c-0.3-1.6-1.9-2.9-3.5-2.9l-1.5,0.4l-0.2,0.1l-0.2,0.1
			l-0.2,0.1c-6.4,3.2-13.7,5-21.4,5.1v0h-0.2h0h-0.1c-4.9,0-9.4-0.9-13.7-2.1c-19.9-5.7-34.7-23.5-34.7-45l0-1.1l0-1
			c0-21.4,14.8-39.2,34.7-44.9c4.2-1.2,8.8-2.1,13.7-2.1h0.1c7.8,0,15.2,1.9,21.7,5.1l0.4,0.1l0.1,0.1l1.5,0.4
			c1.6,0,3.2-1.3,3.5-2.9l-0.1-62.5c0-0.9,0.2-1.6,0.4-2.4h0c0.1-2.2,0.9-4.2,2.1-5.8l-2-0.4l-70.2-0.3c-2.7-1.9-3.9-5.5-2.3-8.6
			c3.1-5.9,4.8-12.5,4.8-19.6c0-33.3-38.6-57.9-74.7-33.9c-1.8,1.2-3.5,2.8-4.7,4.6c-12.3,17.3-12.5,35.1-5.4,48.7
			c1.6,3.1,0.6,6.5-1.9,8.4l-69.8-0.3c-3.9,0-7.1,3-7.3,6.8l-0.4,2.3l0,62.9c-0.8,4.6-5.9,7.4-10.3,5.2c-6.2-3.1-13.2-4.9-20.6-5
			c-25.1-0.1-45.5,19.9-44.9,44.4c-0.4,13.6,5.7,25.9,15.5,34.1h44.8l34.8-30.5v-0.6h38.2c1.5-3.8,5.2-6.4,9.5-6.4
			c5.6,0,10.2,4.6,10.2,10.2c0,5.6-4.6,10.2-10.2,10.2c-4.3,0-8-2.7-9.5-6.4H213l-26.9,23.6H309c1.7-8,8.8-13.9,17.3-13.9
			c9.8,0,17.7,7.9,17.7,17.7c0,9.8-7.9,17.7-17.7,17.7c-7.7,0-14.2-4.9-16.6-11.8H188c0.2,0.4,0.3,0.8,0.4,1.3l0,2.8l33,23.8h36.5
			c1.5-3.8,5.2-6.4,9.5-6.4c5.6,0,10.2,4.6,10.2,10.2c0,5.6-4.6,10.2-10.2,10.2c-4.3,0-8-2.7-9.5-6.4h-40.3v-1.5l-0.9,1.2
			l-28.4-20.5l-0.2,49.7l0.4,2.3c0.2,3.8,3.3,6.8,7.3,6.8l69.8,0.1c2.4,2,3.4,5.4,1.8,8.5c-7.2,13.6-7.1,31.4,5.1,48.8
			c1.2,1.8,2.9,3.4,4.7,4.6c36,24.2,74.8-0.2,74.9-33.5c0-7.1-1.7-13.7-4.7-19.6c-1.6-3.2-0.3-6.7,2.3-8.6l70.2,0.1
			c0.9,0,1.7-0.2,2.5-0.5C421.2,427.2,420.4,425.3,420.4,423.1L420.4,423.1z"/>
	</g>
</g>
</svg>
