<?xml version="1.0" encoding="utf-8"?>
<!-- Generator: Adobe Illustrator 22.0.0, SVG Export Plug-In . SVG Version: 6.00 Build 0)  -->
<svg version="1.1" xmlns="http://www.w3.org/2000/svg" xmlns:xlink="http://www.w3.org/1999/xlink" x="0px" y="0px"
	 viewBox="0 0 292.9 356.1" style="enable-background:new 0 0 292.9 356.1;" xml:space="preserve">
<style type="text/css">
	.st0{fill:#FFFFFF;}
	.st1{clip-path:url(#XMLID_6_);fill:#FFFFFF;}
	.st2{fill:none;stroke:#FFFFFF;stroke-width:8;stroke-miterlimit:10;}
	.st3{clip-path:url(#XMLID_7_);fill:#00443C;}
	.st4{clip-path:url(#XMLID_8_);fill:#FFFFFF;}
	.st5{clip-path:url(#XMLID_9_);fill:#00443C;}
</style>
<g id="Bg">
</g>
<g id="Object">
	<g>
		<defs>
			<path id="XMLID_1_" d="M284.3,140.1l0.4,0.1l0.1,0.1l1.4,0.4c1.5,0,3-1.2,3.3-2.7l-0.1-58.3c0-0.8,0.2-1.5,0.4-2.3h0
				c0.1-2,0.8-3.9,2-5.5l-1.8-0.4l-65.6-0.3c-2.5-1.8-3.7-5.1-2.1-8.1c2.9-5.5,4.5-11.7,4.5-18.3c0-31.1-36-54.1-69.8-31.7
				c-1.7,1.1-3.2,2.6-4.4,4.3c-11.5,16.2-11.6,32.7-5,45.5c1.5,2.9,0.5,6-1.7,7.9l-65.1-0.3c-3.7,0-6.7,2.8-6.8,6.3l-0.4,2.1l0,58.8
				c-0.7,4.3-5.5,7-9.6,4.9c-5.8-2.9-12.3-4.6-19.2-4.6c-23.5-0.1-42.4,18.6-42,41.5c-0.6,22.9,18.3,41.7,41.8,41.7
				c6.9,0,13.5-1.6,19.3-4.6c4.1-2.1,8.9,0.7,9.6,4.9L73,280.4l0.4,2.1c0.1,3.5,3.1,6.4,6.8,6.4l65.1,0.1c2.2,1.9,3.2,5,1.7,7.9
				c-6.7,12.7-6.7,29.3,4.8,45.5c1.2,1.7,2.7,3.1,4.4,4.3c33.7,22.6,69.8-0.2,69.9-31.3c0-6.6-1.6-12.8-4.4-18.3
				c-1.5-3-0.3-6.3,2.2-8l65.6,0.1c0.8,0,1.6-0.2,2.3-0.4c-1.1-1.5-1.8-3.4-1.9-5.4h0c-0.2-0.7-0.4-1.4-0.4-2.3l0.1-58.3
				c-0.3-1.5-1.8-2.7-3.3-2.7l-1.4,0.3l-0.2,0.1l-0.2,0.1l-0.2,0.1c-6,3-12.8,4.7-20,4.7v0h-0.2h0H264c-4.6,0-8.8-0.9-12.8-2
				c-18.6-5.4-32.4-22-32.4-42l0-1.1l0-0.9c0-20,13.8-36.6,32.4-42c4-1.1,8.2-2,12.8-2h0.1C271.4,135.3,278.2,137.1,284.3,140.1z"/>
		</defs>
		<use xlink:href="#XMLID_1_"  style="overflow:visible;fill:#005F53;"/>
		<clipPath id="XMLID_6_">
			<use xlink:href="#XMLID_1_"  style="overflow:visible;"/>
		</clipPath>
		<rect x="-57.5" y="211.4" class="st1" width="246" height="9"/>
		<rect x="74.5" y="203.9" transform="matrix(0.5851 -0.811 0.811 0.5851 -156.3214 160.2575)" class="st1" width="8" height="58"/>
		<rect x="100.5" y="246.4" class="st1" width="40" height="7"/>
		<circle class="st1" cx="147" cy="249.9" r="9.5"/>
		
			<rect x="54.9" y="196.6" transform="matrix(0.7524 -0.6587 0.6587 0.7524 -112.9716 100.6178)" class="st1" width="44.9" height="8"/>
		<circle class="st1" cx="136" cy="185.9" r="9.5"/>
		<rect x="91.5" y="182.4" class="st1" width="40" height="7"/>
		<circle class="st1" cx="202" cy="214.9" r="16.5"/>
	</g>
</g>
</svg>
